<svg height="3774" width="720" xmlns="http://www.w3.org/2000/svg">
<rect height="3774" fill="#555" width="720"></rect>
<text fill="#7f7" font-family="Courier New" font-size="12" xml:space="preserve">
<tspan x="10" y="26">130 megabytes installed</tspan>
<tspan x="10" y="42"></tspan>
<tspan x="10" y="58">node_modules</tspan>
<tspan x="10" y="74">└─┬ dredd@3.4.3 </tspan>
<tspan x="10" y="90">  ├─┬ async@2.3.0 </tspan>
<tspan x="10" y="106">  │ └── lodash@4.17.4 </tspan>
<tspan x="10" y="122">  ├── caseless@0.12.0 </tspan>
<tspan x="10" y="138">  ├─┬ chai@3.5.0 </tspan>
<tspan x="10" y="154">  │ ├── assertion-error@1.0.2 </tspan>
<tspan x="10" y="170">  │ ├─┬ deep-eql@0.1.3 </tspan>
<tspan x="10" y="186">  │ │ └── type-detect@0.1.1 </tspan>
<tspan x="10" y="202">  │ └── type-detect@1.0.0 </tspan>
<tspan x="10" y="218">  ├── clone@2.1.1 </tspan>
<tspan x="10" y="234">  ├── coffee-script@1.12.5 </tspan>
<tspan x="10" y="250">  ├── colors@1.1.2 </tspan>
<tspan x="10" y="266">  ├─┬ cross-spawn@5.1.0 </tspan>
<tspan x="10" y="282">  │ ├─┬ lru-cache@4.0.2 </tspan>
<tspan x="10" y="298">  │ │ ├── pseudomap@1.0.2 </tspan>
<tspan x="10" y="314">  │ │ └── yallist@2.1.2 </tspan>
<tspan x="10" y="330">  │ └─┬ shebang-command@1.2.0 </tspan>
<tspan x="10" y="346">  │   └── shebang-regex@1.0.0 </tspan>
<tspan x="10" y="362">  ├─┬ dredd-transactions@4.0.0 </tspan>
<tspan x="10" y="378">  │ ├── caseless@0.11.0 </tspan>
<tspan x="10" y="394">  │ ├── deckardcain@0.3.3 </tspan>
<tspan x="10" y="410">  │ ├─┬ fury@2.3.0 </tspan>
<tspan x="10" y="426">  │ │ ├─┬ babel-runtime@5.8.38 </tspan>
<tspan x="10" y="442">  │ │ │ └── core-js@1.2.7 </tspan>
<tspan x="10" y="458">  │ │ ├─┬ minim@0.14.2 </tspan>
<tspan x="10" y="474">  │ │ │ └── uptown@0.4.1 </tspan>
<tspan x="10" y="490">  │ │ └─┬ minim-parse-result@0.2.2 </tspan>
<tspan x="10" y="506">  │ │   └── minim-api-description@0.1.8 </tspan>
<tspan x="10" y="522">  │ ├─┬ fury-adapter-apib-parser@0.3.0 </tspan>
<tspan x="10" y="538">  │ │ ├── deckardcain@0.1.6 </tspan>
<tspan x="10" y="554">  │ │ └─┬ drafter@1.2.0 </tspan>
<tspan x="10" y="570">  │ │   ├── drafter.js@2.6.6 </tspan>
<tspan x="10" y="586">  │ │   └─┬ protagonist@1.6.7 </tspan>
<tspan x="10" y="602">  │ │     └── nan@2.2.1 </tspan>
<tspan x="10" y="618">  │ ├─┬ fury-adapter-swagger@0.9.13 </tspan>
<tspan x="10" y="634">  │ │ ├─┬ json-schema-faker@0.4.1 </tspan>
<tspan x="10" y="650">  │ │ │ ├── chance@1.0.6 </tspan>
<tspan x="10" y="666">  │ │ │ ├─┬ deref@0.6.4 </tspan>
<tspan x="10" y="682">  │ │ │ │ └── deep-extend@0.4.1 </tspan>
<tspan x="10" y="698">  │ │ │ ├── faker@3.0.1 </tspan>
<tspan x="10" y="714">  │ │ │ └─┬ randexp@0.4.5 </tspan>
<tspan x="10" y="730">  │ │ │   ├── discontinuous-range@1.0.0 </tspan>
<tspan x="10" y="746">  │ │ │   └── ret@0.1.14 </tspan>
<tspan x="10" y="762">  │ │ ├─┬ swagger-parser@3.4.1 </tspan>
<tspan x="10" y="778">  │ │ │ ├── call-me-maybe@1.0.1 </tspan>
<tspan x="10" y="794">  │ │ │ ├─┬ debug@2.6.4 </tspan>
<tspan x="10" y="810">  │ │ │ │ └── ms@0.7.3 </tspan>
<tspan x="10" y="826">  │ │ │ ├── es6-promise@3.3.1 </tspan>
<tspan x="10" y="842">  │ │ │ ├── json-schema-ref-parser@1.4.1 </tspan>
<tspan x="10" y="858">  │ │ │ ├── ono@2.2.4 </tspan>
<tspan x="10" y="874">  │ │ │ ├── swagger-methods@1.0.0 </tspan>
<tspan x="10" y="890">  │ │ │ ├── swagger-schema-official@2.0.0-bab6bed </tspan>
<tspan x="10" y="906">  │ │ │ └─┬ z-schema@3.18.2 </tspan>
<tspan x="10" y="922">  │ │ │   ├── lodash.get@4.4.2 </tspan>
<tspan x="10" y="938">  │ │ │   ├── lodash.isequal@4.5.0 </tspan>
<tspan x="10" y="954">  │ │ │   └── validator@6.3.0 </tspan>
<tspan x="10" y="970">  │ │ └── yaml-js@0.1.5 </tspan>
<tspan x="10" y="986">  │ ├── sift@3.3.3 </tspan>
<tspan x="10" y="1002">  │ ├── traverse@0.6.6 </tspan>
<tspan x="10" y="1018">  │ └─┬ uri-template@1.0.1 </tspan>
<tspan x="10" y="1034">  │   └── pct-encode@1.0.2 </tspan>
<tspan x="10" y="1050">  ├── file@0.2.2 </tspan>
<tspan x="10" y="1066">  ├─┬ gavel@1.1.1 </tspan>
<tspan x="10" y="1082">  │ ├── amanda@0.5.1 </tspan>
<tspan x="10" y="1098">  │ ├─┬ commander@2.9.0 </tspan>
<tspan x="10" y="1114">  │ │ └── graceful-readlink@1.0.1 </tspan>
<tspan x="10" y="1130">  │ ├─┬ curl-trace-parser@0.0.8 </tspan>
<tspan x="10" y="1146">  │ │ ├── api-blueprint-http-formatter@0.0.1 </tspan>
<tspan x="10" y="1162">  │ │ ├─┬ commander@1.2.0 </tspan>
<tspan x="10" y="1178">  │ │ │ └── keypress@0.1.0 </tspan>
<tspan x="10" y="1194">  │ │ └── http-string-parser@0.0.4 </tspan>
<tspan x="10" y="1210">  │ ├── deep-equal@1.0.1 </tspan>
<tspan x="10" y="1226">  │ ├── googlediff@0.1.0 </tspan>
<tspan x="10" y="1242">  │ ├── http-string-parser@0.0.5 </tspan>
<tspan x="10" y="1258">  │ ├─┬ is-type@0.0.1 </tspan>
<tspan x="10" y="1274">  │ │ └── core-util-is@1.0.2 </tspan>
<tspan x="10" y="1290">  │ ├─┬ json-pointer@0.6.0 </tspan>
<tspan x="10" y="1306">  │ │ └── foreach@2.0.5 </tspan>
<tspan x="10" y="1322">  │ ├─┬ jsonlint@1.6.2  (git+https://git@github.com/josdejong/jsonlint.git#85a19d77126771f317758\</tspan>
<tspan x="10" y="1338">2e3d09c6ffae185d391)</tspan>
<tspan x="10" y="1354">  │ │ ├── JSV@4.0.2 </tspan>
<tspan x="10" y="1370">  │ │ └─┬ nomnom@1.8.1 </tspan>
<tspan x="10" y="1386">  │ │   ├─┬ chalk@0.4.0 </tspan>
<tspan x="10" y="1402">  │ │   │ ├── ansi-styles@1.0.0 </tspan>
<tspan x="10" y="1418">  │ │   │ ├── has-color@0.1.7 </tspan>
<tspan x="10" y="1434">  │ │   │ └── strip-ansi@0.1.1 </tspan>
<tspan x="10" y="1450">  │ │   └── underscore@1.6.0 </tspan>
<tspan x="10" y="1466">  │ ├── media-typer@0.3.0 </tspan>
<tspan x="10" y="1482">  │ └── tv4@1.3.0 </tspan>
<tspan x="10" y="1498">  ├─┬ glob@7.1.1 </tspan>
<tspan x="10" y="1514">  │ ├── fs.realpath@1.0.0 </tspan>
<tspan x="10" y="1530">  │ ├─┬ inflight@1.0.6 </tspan>
<tspan x="10" y="1546">  │ │ └── wrappy@1.0.2 </tspan>
<tspan x="10" y="1562">  │ ├── inherits@2.0.3 </tspan>
<tspan x="10" y="1578">  │ ├─┬ minimatch@3.0.3 </tspan>
<tspan x="10" y="1594">  │ │ └─┬ brace-expansion@1.1.7 </tspan>
<tspan x="10" y="1610">  │ │   ├── balanced-match@0.4.2 </tspan>
<tspan x="10" y="1626">  │ │   └── concat-map@0.0.1 </tspan>
<tspan x="10" y="1642">  │ ├── once@1.4.0 </tspan>
<tspan x="10" y="1658">  │ └── path-is-absolute@1.0.1 </tspan>
<tspan x="10" y="1674">  ├─┬ html@1.0.0 </tspan>
<tspan x="10" y="1690">  │ └─┬ concat-stream@1.6.0 </tspan>
<tspan x="10" y="1706">  │   ├─┬ readable-stream@2.2.9 </tspan>
<tspan x="10" y="1722">  │   │ ├── buffer-shims@1.0.0 </tspan>
<tspan x="10" y="1738">  │   │ ├── isarray@1.0.0 </tspan>
<tspan x="10" y="1754">  │   │ ├── process-nextick-args@1.0.7 </tspan>
<tspan x="10" y="1770">  │   │ ├── string_decoder@1.0.0 </tspan>
<tspan x="10" y="1786">  │   │ └── util-deprecate@1.0.2 </tspan>
<tspan x="10" y="1802">  │   └── typedarray@0.0.6 </tspan>
<tspan x="10" y="1818">  ├── htmlencode@0.0.4 </tspan>
<tspan x="10" y="1834">  ├─┬ inquirer@1.2.3 </tspan>
<tspan x="10" y="1850">  │ ├── ansi-escapes@1.4.0 </tspan>
<tspan x="10" y="1866">  │ ├─┬ chalk@1.1.3 </tspan>
<tspan x="10" y="1882">  │ │ ├── ansi-styles@2.2.1 </tspan>
<tspan x="10" y="1898">  │ │ ├── has-ansi@2.0.0 </tspan>
<tspan x="10" y="1914">  │ │ └── supports-color@2.0.0 </tspan>
<tspan x="10" y="1930">  │ ├─┬ cli-cursor@1.0.2 </tspan>
<tspan x="10" y="1946">  │ │ └─┬ restore-cursor@1.0.1 </tspan>
<tspan x="10" y="1962">  │ │   ├── exit-hook@1.1.1 </tspan>
<tspan x="10" y="1978">  │ │   └── onetime@1.1.0 </tspan>
<tspan x="10" y="1994">  │ ├── cli-width@2.1.0 </tspan>
<tspan x="10" y="2010">  │ ├─┬ external-editor@1.1.1 </tspan>
<tspan x="10" y="2026">  │ │ ├─┬ spawn-sync@1.0.15 </tspan>
<tspan x="10" y="2042">  │ │ │ └── os-shim@0.1.3 </tspan>
<tspan x="10" y="2058">  │ │ └─┬ tmp@0.0.29 </tspan>
<tspan x="10" y="2074">  │ │   └── os-tmpdir@1.0.2 </tspan>
<tspan x="10" y="2090">  │ ├─┬ figures@1.7.0 </tspan>
<tspan x="10" y="2106">  │ │ ├── escape-string-regexp@1.0.5 </tspan>
<tspan x="10" y="2122">  │ │ └── object-assign@4.1.1 </tspan>
<tspan x="10" y="2138">  │ ├── mute-stream@0.0.6 </tspan>
<tspan x="10" y="2154">  │ ├─┬ pinkie-promise@2.0.1 </tspan>
<tspan x="10" y="2170">  │ │ └── pinkie@2.0.4 </tspan>
<tspan x="10" y="2186">  │ ├─┬ run-async@2.3.0 </tspan>
<tspan x="10" y="2202">  │ │ └── is-promise@2.1.0 </tspan>
<tspan x="10" y="2218">  │ ├── rx@4.1.0 </tspan>
<tspan x="10" y="2234">  │ ├─┬ string-width@1.0.2 </tspan>
<tspan x="10" y="2250">  │ │ ├── code-point-at@1.1.0 </tspan>
<tspan x="10" y="2266">  │ │ ├─┬ is-fullwidth-code-point@1.0.0 </tspan>
<tspan x="10" y="2282">  │ │ │ └── number-is-nan@1.0.1 </tspan>
<tspan x="10" y="2298">  │ │ └── strip-ansi@3.0.1 </tspan>
<tspan x="10" y="2314">  │ ├─┬ strip-ansi@3.0.1 </tspan>
<tspan x="10" y="2330">  │ │ └── ansi-regex@2.1.1 </tspan>
<tspan x="10" y="2346">  │ └── through@2.3.8 </tspan>
<tspan x="10" y="2362">  ├─┬ js-yaml@3.8.3 </tspan>
<tspan x="10" y="2378">  │ ├─┬ argparse@1.0.9 </tspan>
<tspan x="10" y="2394">  │ │ └── sprintf-js@1.0.3 </tspan>
<tspan x="10" y="2410">  │ └── esprima@3.1.3 </tspan>
<tspan x="10" y="2426">  ├─┬ markdown-it@8.3.1 </tspan>
<tspan x="10" y="2442">  │ ├── entities@1.1.1 </tspan>
<tspan x="10" y="2458">  │ ├── linkify-it@2.0.3 </tspan>
<tspan x="10" y="2474">  │ ├── mdurl@1.0.1 </tspan>
<tspan x="10" y="2490">  │ └── uc.micro@1.0.3 </tspan>
<tspan x="10" y="2506">  ├─┬ optimist@0.6.1 </tspan>
<tspan x="10" y="2522">  │ ├── minimist@0.0.10 </tspan>
<tspan x="10" y="2538">  │ └── wordwrap@0.0.3 </tspan>
<tspan x="10" y="2554">  ├─┬ pitboss-ng@0.3.2 </tspan>
<tspan x="10" y="2570">  │ ├── clone@1.0.2 </tspan>
<tspan x="10" y="2586">  │ ├─┬ csv@0.4.6 </tspan>
<tspan x="10" y="2602">  │ │ ├── csv-generate@0.0.6 </tspan>
<tspan x="10" y="2618">  │ │ ├── csv-parse@1.2.0 </tspan>
<tspan x="10" y="2634">  │ │ ├── csv-stringify@0.0.8 </tspan>
<tspan x="10" y="2650">  │ │ └── stream-transform@0.1.2 </tspan>
<tspan x="10" y="2666">  │ └── pidusage@0.1.1 </tspan>
<tspan x="10" y="2682">  ├─┬ proxyquire@1.7.11 </tspan>
<tspan x="10" y="2698">  │ ├─┬ fill-keys@1.0.2 </tspan>
<tspan x="10" y="2714">  │ │ ├── is-object@1.0.1 </tspan>
<tspan x="10" y="2730">  │ │ └── merge-descriptors@1.0.1 </tspan>
<tspan x="10" y="2746">  │ ├── module-not-found-error@1.0.1 </tspan>
<tspan x="10" y="2762">  │ └── resolve@1.1.7 </tspan>
<tspan x="10" y="2778">  ├─┬ request@2.81.0 </tspan>
<tspan x="10" y="2794">  │ ├── aws-sign2@0.6.0 </tspan>
<tspan x="10" y="2810">  │ ├── aws4@1.6.0 </tspan>
<tspan x="10" y="2826">  │ ├─┬ combined-stream@1.0.5 </tspan>
<tspan x="10" y="2842">  │ │ └── delayed-stream@1.0.0 </tspan>
<tspan x="10" y="2858">  │ ├── extend@3.0.0 </tspan>
<tspan x="10" y="2874">  │ ├── forever-agent@0.6.1 </tspan>
<tspan x="10" y="2890">  │ ├─┬ form-data@2.1.4 </tspan>
<tspan x="10" y="2906">  │ │ └── asynckit@0.4.0 </tspan>
<tspan x="10" y="2922">  │ ├─┬ har-validator@4.2.1 </tspan>
<tspan x="10" y="2938">  │ │ ├─┬ ajv@4.11.7 </tspan>
<tspan x="10" y="2954">  │ │ │ ├── co@4.6.0 </tspan>
<tspan x="10" y="2970">  │ │ │ └─┬ json-stable-stringify@1.0.1 </tspan>
<tspan x="10" y="2986">  │ │ │   └── jsonify@0.0.0 </tspan>
<tspan x="10" y="3002">  │ │ └── har-schema@1.0.5 </tspan>
<tspan x="10" y="3018">  │ ├─┬ hawk@3.1.3 </tspan>
<tspan x="10" y="3034">  │ │ ├── boom@2.10.1 </tspan>
<tspan x="10" y="3050">  │ │ ├── cryptiles@2.0.5 </tspan>
<tspan x="10" y="3066">  │ │ ├── hoek@2.16.3 </tspan>
<tspan x="10" y="3082">  │ │ └── sntp@1.0.9 </tspan>
<tspan x="10" y="3098">  │ ├─┬ http-signature@1.1.1 </tspan>
<tspan x="10" y="3114">  │ │ ├── assert-plus@0.2.0 </tspan>
<tspan x="10" y="3130">  │ │ ├─┬ jsprim@1.4.0 </tspan>
<tspan x="10" y="3146">  │ │ │ ├── assert-plus@1.0.0 </tspan>
<tspan x="10" y="3162">  │ │ │ ├── extsprintf@1.0.2 </tspan>
<tspan x="10" y="3178">  │ │ │ ├── json-schema@0.2.3 </tspan>
<tspan x="10" y="3194">  │ │ │ └── verror@1.3.6 </tspan>
<tspan x="10" y="3210">  │ │ └─┬ sshpk@1.13.0 </tspan>
<tspan x="10" y="3226">  │ │   ├── asn1@0.2.3 </tspan>
<tspan x="10" y="3242">  │ │   ├── assert-plus@1.0.0 </tspan>
<tspan x="10" y="3258">  │ │   ├── bcrypt-pbkdf@1.0.1 </tspan>
<tspan x="10" y="3274">  │ │   ├─┬ dashdash@1.14.1 </tspan>
<tspan x="10" y="3290">  │ │   │ └── assert-plus@1.0.0 </tspan>
<tspan x="10" y="3306">  │ │   ├── ecc-jsbn@0.1.1 </tspan>
<tspan x="10" y="3322">  │ │   ├─┬ getpass@0.1.7 </tspan>
<tspan x="10" y="3338">  │ │   │ └── assert-plus@1.0.0 </tspan>
<tspan x="10" y="3354">  │ │   ├── jodid25519@1.0.2 </tspan>
<tspan x="10" y="3370">  │ │   ├── jsbn@0.1.1 </tspan>
<tspan x="10" y="3386">  │ │   └── tweetnacl@0.14.5 </tspan>
<tspan x="10" y="3402">  │ ├── is-typedarray@1.0.0 </tspan>
<tspan x="10" y="3418">  │ ├── isstream@0.1.2 </tspan>
<tspan x="10" y="3434">  │ ├── json-stringify-safe@5.0.1 </tspan>
<tspan x="10" y="3450">  │ ├─┬ mime-types@2.1.15 </tspan>
<tspan x="10" y="3466">  │ │ └── mime-db@1.27.0 </tspan>
<tspan x="10" y="3482">  │ ├── oauth-sign@0.8.2 </tspan>
<tspan x="10" y="3498">  │ ├── performance-now@0.2.0 </tspan>
<tspan x="10" y="3514">  │ ├── qs@6.4.0 </tspan>
<tspan x="10" y="3530">  │ ├── safe-buffer@5.0.1 </tspan>
<tspan x="10" y="3546">  │ ├── stringstream@0.0.5 </tspan>
<tspan x="10" y="3562">  │ ├─┬ tough-cookie@2.3.2 </tspan>
<tspan x="10" y="3578">  │ │ └── punycode@1.4.1 </tspan>
<tspan x="10" y="3594">  │ └── tunnel-agent@0.6.0 </tspan>
<tspan x="10" y="3610">  ├── spawn-args@0.2.0 </tspan>
<tspan x="10" y="3626">  ├── uuid@3.0.1 </tspan>
<tspan x="10" y="3642">  ├─┬ which@1.2.14 </tspan>
<tspan x="10" y="3658">  │ └── isexe@2.0.0 </tspan>
<tspan x="10" y="3674">  └─┬ winston@2.3.1 </tspan>
<tspan x="10" y="3690">    ├── async@1.0.0 </tspan>
<tspan x="10" y="3706">    ├── colors@1.0.3 </tspan>
<tspan x="10" y="3722">    ├── cycle@1.0.3 </tspan>
<tspan x="10" y="3738">    ├── eyes@0.1.8 </tspan>
<tspan x="10" y="3754">    └── stack-trace@0.0.9</tspan>
</text>
</svg>
